<svg width="60" height="60" viewBox="0 0 60 60" fill="none" xmlns="http://www.w3.org/2000/svg">
<g clip-path="url(#clip0_926_472)">
<circle cx="30.1277" cy="30.1277" r="30.1277" fill="#FF7E7E"/>
<path d="M27.0611 30L18.9821 21.921C18.7891 21.728 18.636 21.4989 18.5316 21.2468C18.4272 20.9947 18.3734 20.7244 18.3734 20.4515C18.3734 20.1786 18.4272 19.9084 18.5316 19.6563C18.636 19.4041 18.7891 19.175 18.9821 18.9821C19.175 18.7891 19.4041 18.636 19.6563 18.5316C19.9084 18.4272 20.1786 18.3734 20.4515 18.3734C20.7244 18.3734 20.9947 18.4272 21.2468 18.5316C21.4989 18.636 21.728 18.7891 21.921 18.9821L30.0003 27.0614L38.0787 18.9994C38.0788 18.9993 38.0789 18.9992 38.079 18.9991C38.2718 18.806 38.5008 18.6528 38.7529 18.5482C39.0051 18.4436 39.2754 18.3897 39.5485 18.3897C39.8215 18.3897 40.0919 18.4436 40.3441 18.5482C40.5961 18.6528 40.8251 18.806 41.0179 18.9991L27.0611 30ZM27.0611 30L18.9821 38.079C18.7891 38.272 18.636 38.5011 18.5316 38.7532C18.4272 39.0053 18.3734 39.2756 18.3734 39.5485C18.3734 39.8214 18.4272 40.0916 18.5316 40.3437C18.636 40.5959 18.7891 40.825 18.9821 41.0179C19.175 41.2109 19.4041 41.364 19.6563 41.4684C19.9084 41.5728 20.1786 41.6266 20.4515 41.6266C20.7244 41.6266 20.9947 41.5728 21.2468 41.4684C21.4989 41.364 21.728 41.2109 21.921 41.0179L30 32.9389L38.079 41.0179C38.272 41.2109 38.5011 41.364 38.7532 41.4684C39.0053 41.5728 39.2756 41.6266 39.5485 41.6266C39.8214 41.6266 40.0916 41.5728 40.3437 41.4684C40.5959 41.364 40.825 41.2109 41.0179 41.0179C41.2109 40.825 41.364 40.5959 41.4684 40.3437C41.5728 40.0916 41.6266 39.8214 41.6266 39.5485C41.6266 39.2756 41.5728 39.0053 41.4684 38.7532C41.364 38.5011 41.2109 38.272 41.0179 38.079L32.9389 30L41.0179 21.921C41.8135 21.1254 41.8135 19.7949 41.0181 18.9993L27.0611 30Z" fill="#010101" stroke="#010101" stroke-width="0.753191"/>
</g>
<defs>
<clipPath id="clip0_926_472">
<rect width="60" height="60" fill="none"/>
</clipPath>
</defs>
</svg>
